<?xml version="1.0" encoding="UTF-8" standalone="no"?>
<svg
   xmlns:dc="http://purl.org/dc/elements/1.1/"
   xmlns:cc="http://creativecommons.org/ns#"
   xmlns:rdf="http://www.w3.org/1999/02/22-rdf-syntax-ns#"
   xmlns:svg="http://www.w3.org/2000/svg"
   xmlns="http://www.w3.org/2000/svg"
   xmlns:sodipodi="http://sodipodi.sourceforge.net/DTD/sodipodi-0.dtd"
   xmlns:inkscape="http://www.inkscape.org/namespaces/inkscape"
   version="1.1"
   id="svg2"
   xml:space="preserve"
   width="1280"
   height="1280"
   viewBox="0 0 1280 1280"
   sodipodi:docname="logo.ai"><metadata
     id="metadata8"><rdf:RDF><cc:Work
         rdf:about=""><dc:format>image/svg+xml</dc:format><dc:type
           rdf:resource="http://purl.org/dc/dcmitype/StillImage" /></cc:Work></rdf:RDF></metadata><defs
     id="defs6"><clipPath
       clipPathUnits="userSpaceOnUse"
       id="clipPath20"><path
         d="M 0,960 H 960 V 0 H 0 Z"
         id="path18" /></clipPath></defs><sodipodi:namedview
     pagecolor="#ffffff"
     bordercolor="#666666"
     borderopacity="1"
     objecttolerance="10"
     gridtolerance="10"
     guidetolerance="10"
     inkscape:pageopacity="0"
     inkscape:pageshadow="2"
     inkscape:window-width="640"
     inkscape:window-height="480"
     id="namedview4" /><g
     id="g10"
     inkscape:groupmode="layer"
     inkscape:label="logo"
     transform="matrix(1.3333333,0,0,-1.3333333,0,1280)"><path
       d="M 0,0 H 960 V 960 H 0 Z"
       style="fill:#29abe2;fill-opacity:1;fill-rule:nonzero;stroke:none"
       id="path12" /><g
       id="g14"><g
         id="g16"
         clip-path="url(#clipPath20)"><g
           id="g22"
           transform="translate(480,867.8198)"><path
             d="m 0,0 c -214.188,0 -387.82,-173.633 -387.82,-387.82 0,-214.187 173.632,-387.819 387.82,-387.819 214.188,0 387.82,173.632 387.82,387.819 C 387.82,-173.633 214.188,0 0,0 m 0,-22.315 c 49.353,0 97.218,-9.661 142.265,-28.714 43.521,-18.409 82.612,-44.766 116.186,-78.34 33.574,-33.575 59.932,-72.666 78.34,-116.187 19.053,-45.047 28.714,-92.911 28.714,-142.264 0,-49.352 -9.661,-97.217 -28.714,-142.263 -18.408,-43.522 -44.766,-82.613 -78.34,-116.187 -33.574,-33.575 -72.665,-59.932 -116.186,-78.34 C 97.218,-743.663 49.353,-753.324 0,-753.324 c -49.353,0 -97.217,9.661 -142.264,28.714 -43.522,18.408 -82.612,44.765 -116.187,78.34 -33.575,33.574 -59.932,72.665 -78.34,116.187 -19.053,45.046 -28.714,92.911 -28.714,142.263 0,49.353 9.661,97.217 28.714,142.264 18.408,43.521 44.765,82.612 78.34,116.187 33.575,33.574 72.665,59.931 116.187,78.34 45.047,19.053 92.911,28.714 142.264,28.714"
             style="fill:#ffffff;fill-opacity:1;fill-rule:nonzero;stroke:none"
             id="path24" /></g><g
           id="g26"
           transform="translate(488.8438,492)"><path
             d="M 0,0 -59.227,102.499 0,205 H 118.455 L 177.682,102.5 118.455,0 Z"
             style="fill:#a3e4ff;fill-opacity:1;fill-rule:nonzero;stroke:none"
             id="path28" /></g><g
           id="g30"
           transform="translate(488.8457,263.2129)"><path
             d="M 0,0 -59.23,102.393 -0.002,204.787 H 118.453 L 177.68,102.393 118.453,-0.039 Z"
             style="fill:#a3e4ff;fill-opacity:1;fill-rule:nonzero;stroke:none"
             id="path32" /></g><g
           id="g34"
           transform="translate(292.7031,378)"><path
             d="M 0,0 -59.229,103 0,206 H 118.457 L 177.682,103.002 118.455,0 Z"
             style="fill:#a3e4ff;fill-opacity:1;fill-rule:nonzero;stroke:none"
             id="path36" /></g></g></g></g></svg>
